<?xml version="1.0" ?><!DOCTYPE svg  PUBLIC '-//W3C//DTD SVG 1.1//EN'  'http://www.w3.org/Graphics/SVG/1.1/DTD/svg11.dtd'><svg height="512px" id="形状_1_1_" style="enable-background:new 0 0 512 512;" version="1.1" viewBox="0 0 512 512" width="512px" xml:space="preserve" xmlns="http://www.w3.org/2000/svg" xmlns:xlink="http://www.w3.org/1999/xlink"><g id="形状_1"><g><path d="M368.911,226.687h-9.741v59.637h45.763l6.199-9.743h-42.221    V226.687z M235.336,229.639l-35.724,56.685h11.81l10.776-17.125h23.028l6.053-9.74H228.25l12.547-19.634l29.376,46.499h11.807    l-36.018-56.832C243.75,225.801,237.844,225.801,235.336,229.639z M304.566,236.411h40.964l6.04-9.734l-47.298,0.027    c-16.461,0-27.294,13.342-27.294,29.8c0,16.457,10.833,29.802,27.294,29.802l40.012-0.047l6.264-9.661h-45.981    c-11.098,0-17.584-8.996-17.584-20.094C286.982,245.408,293.469,236.411,304.566,236.411z M95.522,226.704H53.303    c-16.458,0-27.291,13.342-27.291,29.801c0,16.456,10.833,29.801,27.291,29.801h42.219c16.459,0,27.291-13.345,27.291-29.801    C122.813,240.046,111.981,226.704,95.522,226.704z M95.522,276.598H53.303c-11.097,0-17.583-8.996-17.583-20.093    s6.487-20.094,17.583-20.094h42.219c11.097,0,17.584,8.997,17.584,20.094S106.619,276.598,95.522,276.598z M421.856,261.229    h51.589l6.204-9.743h-57.793c1.688-8.633,7.783-15.074,17.121-15.074h40.965l6.045-9.734l-47.303,0.027    c-16.461,0-27.289,13.342-27.289,29.8c0,16.457,10.828,29.802,27.289,29.802l40.011-0.047l6.264-9.661h-45.981    C429.506,276.598,423.44,270.048,421.856,261.229z M178.333,262.093c9.771,0,17.692-7.921,17.692-17.693    c0-9.771-7.921-17.691-17.692-17.691l-49.674-0.021v59.637h10.924v-49.908h38.75c4.41,0,7.985,3.575,7.985,7.984    c0,4.41-3.575,7.985-7.985,7.985H147.26l35.052,33.871h14.103l-25.094-24.143L178.333,262.093z" style="fill-rule:evenodd;clip-rule:evenodd;fill:#E72E15;"/></g></g></svg>